<svg width="269" height="65" viewBox="0 0 269 65" fill="none" xmlns="http://www.w3.org/2000/svg">
<g clip-path="url(#clip0_1_326)">
<path d="M31.148 64.0038C13.9707 64.0038 0 49.887 0 32.5411C0 24.4533 3.04101 16.7668 8.56027 10.8956L8.65958 10.7905L23.666 36.9313C25.2078 39.6161 28.0786 41.2881 31.1574 41.2881C32.6708 41.2881 34.1701 40.882 35.4896 40.1081C39.6136 37.6909 41.023 32.3309 38.6346 28.1604C37.0928 25.4756 34.2221 23.8036 31.1433 23.8036C29.6298 23.8036 28.1306 24.2097 26.8111 24.9835C25.9362 25.4995 25.151 26.1683 24.4889 26.9804L24.3896 27.0998L12.8876 7.06428L12.9681 7.00697C18.2886 3.13267 24.5788 1.08325 31.148 1.08325C48.3205 1.08325 62.2913 15.1951 62.2913 32.5411C62.2913 49.887 48.3205 64.0038 31.148 64.0038ZM8.32378 23.6698C7.236 26.5075 6.68741 29.4884 6.68741 32.5411C6.68741 46.1656 17.6597 57.2487 31.148 57.2487C44.6363 57.2487 55.6038 46.1656 55.6038 32.5411C55.6038 18.9165 44.6315 7.83821 31.148 7.83821C28.0218 7.83821 24.9713 8.43535 22.0722 9.60578L26.7259 17.7079C28.1543 17.2732 29.6393 17.0486 31.1385 17.0486C36.5915 17.0486 41.6804 20.0057 44.414 24.7638C48.6563 32.1494 46.1592 41.6512 38.838 45.9411C36.5017 47.3074 33.8437 48.0335 31.1574 48.0335C25.6997 48.0335 20.6108 45.0764 17.8772 40.3136L8.32378 23.6698Z" fill="white"/>
<path d="M253.336 51.4159C245.183 51.4159 238.552 44.8998 238.552 36.8884C238.552 28.877 245.187 22.361 253.336 22.361C261.485 22.361 268.12 28.877 268.12 36.8884C268.12 44.8998 261.485 51.4159 253.336 51.4159ZM253.336 28.9678C249.061 28.9678 245.585 32.5221 245.585 36.8884C245.585 41.2548 249.061 44.809 253.336 44.809C257.611 44.809 261.088 41.2548 261.088 36.8884C261.088 32.5221 257.611 28.9678 253.336 28.9678Z" fill="white"/>
<path d="M140.875 51.4159C132.135 51.4159 125.543 45.1721 125.543 36.8885C125.543 28.6048 132.178 22.3562 140.331 22.3562C148.485 22.3562 155.116 28.8771 155.116 36.8885C155.116 37.6958 155.049 38.4841 154.926 39.2388L154.912 39.3296H132.958C134.032 42.7644 136.983 44.809 140.88 44.809C143.093 44.809 145.203 43.8392 146.673 42.1433L146.721 42.0908L153.479 44.4937L153.408 44.6084C150.684 48.8696 146.002 51.4159 140.885 51.4159H140.875ZM147.657 34.304C146.583 31.108 143.656 28.9678 140.326 28.9678C136.997 28.9678 134.069 31.108 132.996 34.304H147.653H147.657Z" fill="white"/>
<path d="M89.8733 51.4159C81.5304 51.4159 74.7436 44.895 74.7436 36.8836V13.6665H81.6961V25.5999C84.0609 23.4788 86.9974 22.361 90.1946 22.361C97.9369 22.361 104.231 28.877 104.231 36.8932C104.231 44.9093 97.79 51.4206 89.8733 51.4206V51.4159ZM89.4476 28.9678C85.1817 28.9678 81.7009 32.5173 81.6961 36.8836C81.6961 41.2595 85.172 44.809 89.4476 44.809C93.7231 44.809 97.1991 41.2548 97.1991 36.8884C97.1991 32.5221 93.7231 28.9678 89.4476 28.9678Z" fill="white"/>
<path d="M221.063 51.4159C212.72 51.4159 205.933 44.895 205.933 36.8836V13.6665H212.885V25.5999C215.255 23.4788 218.187 22.361 221.384 22.361C229.126 22.361 235.421 28.877 235.421 36.8932C235.421 44.9093 228.98 51.4206 221.063 51.4206V51.4159ZM220.637 28.9678C216.371 28.9678 212.89 32.5173 212.885 36.8836C212.885 41.2595 216.361 44.809 220.637 44.809C224.912 44.809 228.388 41.2548 228.388 36.8884C228.388 32.5221 224.912 28.9678 220.637 28.9678Z" fill="white"/>
<path d="M108.114 50.876V32.2402C108.114 26.4837 111.694 22.9055 117.451 22.9055H124.171V29.6509H119.352C117.129 29.6509 115.076 30.1239 115.076 33.5491V50.876H108.11H108.114Z" fill="white"/>
<path d="M195.022 50.8761V36.2483C195.022 31.2801 191.991 29.5173 189.399 29.5173C188.448 29.5173 183.7 29.8326 183.7 36.0381V50.8761H176.776V36.0381C176.776 29.8326 172.028 29.5173 171.077 29.5173C168.481 29.5173 165.454 31.2801 165.454 36.2483V50.8761H158.686V34.3088C158.686 26.8611 164.806 22.4136 170.723 22.4136C174.45 22.4136 177.996 24.0856 180.243 26.8946C182.485 24.0856 186.036 22.4136 189.763 22.4136C195.68 22.4136 201.804 26.8659 201.804 34.3088V50.8761H195.032H195.022Z" fill="white"/>
</g>
<defs>
<clipPath id="clip0_1_326">
<rect width="268.125" height="65" fill="white"/>
</clipPath>
</defs>
</svg>
